HIERARCHY
ROOT RootJoint
{
    OFFSET   0.000000   0.000000   0.000000
    CHANNELS 6 Xposition Yposition Zposition Xrotation Yrotation Zrotation
    JOINT pelvis_lowerback
    {
        OFFSET   0.000000   0.093605   0.000000
        CHANNELS 3 Xrotation Yrotation Zrotation
        JOINT lowerback_torso
        {
            OFFSET   0.000000   0.100000   0.000000
            CHANNELS 3 Xrotation Yrotation Zrotation
            JOINT torso_head
            {
                OFFSET   0.000000   0.282350   0.000000
                CHANNELS 3 Xrotation Yrotation Zrotation
                End Site
                {
                    OFFSET   0.000000   0.192650   0.000000
                }
            }
            JOINT rTorso_Clavicle
            {
                OFFSET  -0.001000   0.157500   0.000000
                CHANNELS 3 Xrotation Yrotation Zrotation
                JOINT rShoulder
                {
                    OFFSET  -0.117647   0.000000   0.000000
                    CHANNELS 3 Xrotation Yrotation Zrotation
                    JOINT rElbow
                    {
                        OFFSET  -0.245000   0.000000   0.000000
                        CHANNELS 3 Xrotation Yrotation Zrotation
                        JOINT rWrist
                        {
                            OFFSET  -0.240000   0.000000   0.000000
                            CHANNELS 3 Xrotation Yrotation Zrotation
                            End Site
                            {
                                OFFSET  -0.116353  -0.002500   0.000000
                            }
                        }
                    }
                }
            }
            JOINT lTorso_Clavicle
            {
                OFFSET   0.001000   0.157500   0.000000
                CHANNELS 3 Xrotation Yrotation Zrotation
                JOINT lShoulder
                {
                    OFFSET   0.117647   0.000000   0.000000
                    CHANNELS 3 Xrotation Yrotation Zrotation
                    JOINT lElbow
                    {
                        OFFSET   0.245000   0.000000   0.000000
                        CHANNELS 3 Xrotation Yrotation Zrotation
                        JOINT lWrist
                        {
                            OFFSET   0.240000   0.000000   0.000000
                            CHANNELS 3 Xrotation Yrotation Zrotation
                            End Site
                            {
                                OFFSET   0.116353  -0.002500   0.000000
                            }
                        }
                    }
                }
            }
        }
    }
    JOINT rHip
    {
        OFFSET  -0.100000  -0.051395   0.000000
        CHANNELS 3 Xrotation Yrotation Zrotation
        JOINT rKnee
        {
            OFFSET   0.000000  -0.410000   0.000000
            CHANNELS 3 Xrotation Yrotation Zrotation
            JOINT rAnkle
            {
                OFFSET   0.000000  -0.390000   0.000000
                CHANNELS 3 Xrotation Yrotation Zrotation
                JOINT rToeJoint
                {
                    OFFSET   0.000000  -0.050000   0.130000
                    CHANNELS 3 Xrotation Yrotation Zrotation
                    End Site
                    {
                        OFFSET  -0.010000   0.002000   0.060000
                    }
                }
            }
        }
    }
    JOINT lHip
    {
        OFFSET   0.100000  -0.051395   0.000000
        CHANNELS 3 Xrotation Yrotation Zrotation
        JOINT lKnee
        {
            OFFSET   0.000000  -0.410000   0.000000
            CHANNELS 3 Xrotation Yrotation Zrotation
            JOINT lAnkle
            {
                OFFSET   0.000000  -0.390000   0.000000
                CHANNELS 3 Xrotation Yrotation Zrotation
                JOINT lToeJoint
                {
                    OFFSET   0.000000  -0.050000   0.130000
                    CHANNELS 3 Xrotation Yrotation Zrotation
                    End Site
                    {
                        OFFSET   0.010000   0.002000   0.060000
                    }
                }
            }
        }
    }
}
MOTION
Frames: 11
Frame Time:   0.008333
 -2.999396   0.910092   4.084713 -179.940518  -8.897973 176.586822  10.535273  -7.544788  -0.317260   4.462712  -7.203616   4.072541  -0.047388   1.583730  -0.244920   4.803246  -8.713346   5.334322   4.180360  -7.163633  33.606048   0.002749  21.554217  -0.004398   6.413036   2.956367 -23.658789   0.922047  -5.746388  -4.322356   0.427574 -12.831015 -42.000477  -0.000005 -30.730196  -0.000055   7.838721  -4.969865  22.776088 -19.213198  -1.364953   8.489568  18.333783   0.018481  -0.008612  -4.815182  -6.135624   5.052296  -0.177991  -0.001541   0.000587  10.282877   1.183692  -0.085819   6.785876  -0.000151  -0.000262 -13.576305  -2.808946   0.372665  -5.312306  -0.003900  -0.006210
 -3.002840   0.909425   4.078971 -179.866614  -9.248384 176.899949  10.492808  -7.660373  -0.361501   4.452680  -7.254175   4.017334   0.003650   1.417607  -0.384665   4.832857  -8.749147   5.293814   4.040179  -7.372007  33.648454   0.001638  20.890393  -0.004128   6.411491   2.922560 -23.853084   1.034159  -5.741077  -4.361379   0.527362 -12.955487 -42.067191  -0.000010 -30.693122  -0.000051   7.863875  -4.987393  22.883026 -19.050607  -1.703087   8.680853  17.865835   0.017282  -0.007027  -4.362647  -6.312428   4.306732   0.025155  -0.000959   0.000178  10.575671   1.134848  -0.509935   7.119267   0.000538   0.000727 -13.484873  -2.891599   0.205874  -6.298746  -0.005697  -0.007732
 -3.006295   0.908414   4.073073 -179.784872  -9.585665 177.166200  10.426140  -7.762291  -0.350408   4.446059  -7.292147   3.971881   0.052734   1.258803  -0.520176   4.866086  -8.787366   5.233301   3.913514  -7.572660  33.680961   0.000747  20.264021  -0.003841   6.390169   2.840490 -24.021643   1.161475  -5.716083  -4.398543   0.637455 -13.061850 -42.145060  -0.000003 -30.655233  -0.000038   7.890240  -5.002195  22.957592 -18.844042  -2.022195   8.909543  17.460082   0.015913  -0.005772  -3.938603  -6.486335   3.611081   0.227300  -0.000535  -0.000129  10.855249   1.105758  -0.896857   7.593483   0.001427   0.001897 -13.120762  -2.944386  -0.017653  -9.397952  -0.014619  -0.016413
 -3.009813   0.907581   4.067039 -179.711846  -9.876240 177.499117  10.334190  -7.843535  -0.398155   4.424799  -7.315732   3.912390   0.094303   1.110523  -0.646383   4.896237  -8.825114   5.208413   3.795911  -7.760917  33.721990  -0.000232  19.676724  -0.003510   6.361586   2.742997 -24.179428   1.295647  -5.676377  -4.457679   0.753324 -13.147336 -42.220905   0.000006 -30.609824  -0.000012   7.901432  -4.981261  23.012158 -18.607573  -2.306087   9.064608  17.091820   0.014570  -0.004613  -3.543212  -6.653463   2.962628   0.421761  -0.000246  -0.000426  11.150487   1.069527  -1.343007   7.987411   0.001918   0.002482 -13.111513  -3.017880  -0.147010 -10.057440  -0.013034  -0.015041
 -3.013349   0.906807   4.060922 -179.659291 -10.140086 177.822115  10.227140  -7.909444  -0.428244   4.391611  -7.327583   3.858063   0.129349   0.972204  -0.765136   4.923429  -8.859603   5.188313   3.686236  -7.935437  33.765063  -0.001131  19.129229  -0.003107   6.333741   2.650485 -24.317267   1.431482  -5.629824  -4.521280   0.868906 -13.222137 -42.301731   0.000020 -30.564901   0.000013   7.904629  -4.945004  23.047961 -18.360799  -2.568539   9.219695  16.757694   0.013276  -0.003655  -3.175332  -6.814005   2.358326   0.601182  -0.000067  -0.000640  11.425653   1.023537  -1.776468   8.382188   0.002275   0.002836 -13.027597  -3.098221  -0.290187 -10.893231  -0.012277  -0.014185
 -3.016887   0.906029   4.054751 -179.627912 -10.385309 178.125702  10.111086  -7.963896  -0.439336   4.350352  -7.330479   3.817462   0.159496   0.843155  -0.874507   4.947270  -8.889683   5.169384   3.582961  -8.096464  33.806400  -0.001896  18.619313  -0.002654   6.309039   2.567344 -24.441947   1.563897  -5.580381  -4.582134   0.980959 -13.288880 -42.380835   0.000040 -30.521742   0.000035   7.904325  -4.903007  23.073803 -18.110763  -2.811481   9.380675  16.455026   0.012036  -0.002887  -2.833154  -6.967417   1.795285   0.765057   0.000038  -0.000773  11.682740   0.974182  -2.189297   8.773200   0.002527   0.003037 -12.908905  -3.178979  -0.434262 -11.829199  -0.011917  -0.013613
 -3.020419   0.905211   4.048545 -179.618247 -10.617823 178.410180   9.989287  -8.009934  -0.434765   4.302843  -7.327120   3.791263   0.185834   0.722716  -0.974858   4.967824  -8.915388   5.151566   3.485408  -8.244784  33.845460  -0.002516  18.144500  -0.002176   6.287823   2.493853 -24.557255   1.689907  -5.530313  -4.636630   1.087618 -13.349070 -42.454326   0.000064 -30.480821   0.000053   7.902252  -4.858865  23.097699 -17.861993  -3.036321   9.543471  16.179969   0.010862  -0.002282  -2.514827  -7.113603   1.270653   0.914711   0.000096  -0.000839  11.924158   0.923892  -2.582665   9.154765   0.002693   0.003133 -12.774603  -3.258654  -0.574774 -12.821922  -0.011716  -0.013221
 -3.024161   0.904461   4.042281 -179.534517 -10.846787 178.897128   9.909129  -8.076665  -0.556996   4.251648  -7.346316   3.695670   0.173040   0.568847  -1.113824   4.981987  -8.858120   5.120172   3.466676  -8.341785  33.986148  -0.003556  17.639953  -0.001200   6.262413   2.360206 -24.713702   1.856137  -5.502520  -4.673798   1.206715 -13.373750 -42.552155   0.000112 -30.299621   0.000087   7.992516  -4.899666  23.207301 -17.388061  -3.152979   9.502502  15.751968   0.010456  -0.001815  -2.321573  -7.303486   0.426204   1.165916   0.000942  -0.001114  11.944744   0.837229  -3.124220  10.173317   0.003671   0.004277 -12.573824  -3.540535  -1.024037 -14.472374  -0.017939  -0.012624
 -3.028056   0.903620   4.035869 -179.449082 -10.963938 179.411186   9.800613  -8.091471  -0.669756   4.195080  -7.326917   3.576999   0.156080   0.423665  -1.253530   4.989667  -8.789728   5.084005   3.445158  -8.422597  34.118124  -0.004413  17.171000  -0.000448   6.240356   2.229425 -24.838488   2.041256  -5.453603  -4.730238   1.340418 -13.380900 -42.665286   0.000156 -30.118365   0.000123   8.062180  -4.890607  23.273334 -16.831964  -3.233880   9.450391  15.358182   0.009985  -0.001123  -2.145742  -7.484973  -0.363246   1.392315   0.001451  -0.001452  11.936371   0.743727  -3.704142  11.279744   0.004342   0.004252 -12.305220  -3.832811  -1.475532 -16.340014  -0.024742  -0.011202
 -3.032039   0.902631   4.029363 -179.390243 -11.008878 179.911731   9.665365  -8.077261  -0.757075   4.125369  -7.279473   3.467691   0.135777   0.288377  -1.383079   4.991433  -8.716256   5.041981   3.419989  -8.490591  34.236137  -0.005080  16.736747   0.000122   6.225472   2.118451 -24.954885   2.233402  -5.389593  -4.796347   1.479691 -13.376989 -42.784665   0.000226 -29.943531   0.000152   8.116935  -4.853932  23.306665 -16.242652  -3.299913   9.414615  15.011651   0.009406  -0.000429  -1.983458  -7.657399  -1.099832   1.601248   0.001731  -0.001762  11.914874   0.650861  -4.288090  12.372845   0.004713   0.003528 -12.008738  -4.117538  -1.913786 -18.271137  -0.030784  -0.009783
 -3.036074   0.901469   4.022811 -179.366504 -11.018135 -179.610172   9.511686  -8.049725  -0.818713   4.043390  -7.217740   3.377880   0.112697   0.162147  -1.501093   4.988770  -8.640604   4.998941   3.392618  -8.548413  34.343630  -0.005587  16.334212   0.000574   6.217088   2.026017 -25.067175   2.423035  -5.319021  -4.862949   1.617682 -13.367031 -42.901807   0.000325 -29.777133   0.000169   8.162316  -4.802492  23.323627 -15.641045  -3.355569   9.393655  14.706330   0.008751   0.000140  -1.833312  -7.820826  -1.786989   1.794092   0.001857  -0.001980  11.881968   0.564545  -4.867420  13.423238   0.004919   0.002639 -11.708539  -4.389258  -2.333885 -20.195094  -0.035532  -0.008997
